<svg width="266" height="181" viewBox="0 0 266 181" fill="none" xmlns="http://www.w3.org/2000/svg">
<g filter="url(#filter0_ddddd_63_153)">
<path fill-rule="evenodd" clip-rule="evenodd" d="M77.3139 6.18621C70.1642 5.53108 63.8371 10.796 63.182 17.9458L60.992 41.8456C60.3369 48.9954 65.6018 55.3225 72.7516 55.9776L197.191 67.3799C197.247 67.5637 197.333 67.7452 197.45 67.9194L202.914 76.0363C203.621 77.0871 205.115 77.2239 206.002 76.3192L212.85 69.3305C212.997 69.1805 213.114 69.0176 213.203 68.8471L235.928 70.9293C243.078 71.5845 249.405 66.3195 250.06 59.1698L252.25 35.2699C252.905 28.1202 247.64 21.7931 240.49 21.1379L77.3139 6.18621Z" fill="white"/>
</g>
<path d="M87.0042 27.8081L85.9895 38.8817L84.1731 38.7153L84.6169 33.8716L79.4068 33.3942L78.9629 38.2379L77.1466 38.0715L78.1612 26.9979L79.9776 27.1643L79.5425 31.9124L84.7527 32.3898L85.1878 27.6417L87.0042 27.8081ZM96.849 35.2334C96.8188 35.5627 96.7703 35.8582 96.7035 36.1198L89.9956 35.5052C89.9844 36.2111 90.1931 36.798 90.6215 37.2657C91.05 37.7334 91.6041 37.9984 92.2839 38.0607C93.2612 38.1502 93.9891 37.8045 94.4677 37.0236L96.4275 37.2032C96.0879 37.9861 95.5438 38.6057 94.7951 39.062C94.0579 39.5086 93.1741 39.6847 92.1438 39.5903C91.3046 39.5134 90.5675 39.2584 89.9324 38.8253C89.3088 38.3825 88.837 37.8037 88.5169 37.0889C88.2084 36.3644 88.0955 35.5507 88.1782 34.6478C88.261 33.7449 88.514 32.9701 88.9375 32.3234C89.3725 31.667 89.9364 31.1831 90.629 30.8717C91.3323 30.5612 92.1141 30.4454 92.9745 30.5242C93.803 30.6002 94.5247 30.8484 95.1396 31.2689C95.7544 31.6894 96.2123 32.2455 96.5131 32.9372C96.8149 33.6182 96.9268 34.3836 96.849 35.2334ZM95.0055 34.4861C95.0562 33.8159 94.8663 33.2576 94.4359 32.8111C94.0055 32.3647 93.4451 32.1098 92.7547 32.0465C92.128 31.9891 91.5731 32.1418 91.0899 32.5045C90.6078 32.8567 90.2931 33.3688 90.1458 34.0408L95.0055 34.4861ZM106.922 31.9468L100.354 44.3593L98.4738 44.187L100.65 40.0804L97.9833 31.1278L100.007 31.3132L101.863 38.2315L105.042 31.7746L106.922 31.9468ZM109.68 38.8513L107.349 43.0722L106.17 42.9642L107.704 38.6703L109.68 38.8513ZM117.041 31.7011C116.712 31.671 116.446 31.5341 116.243 31.2906C116.041 31.0471 115.954 30.7607 115.984 30.4314C116.015 30.1022 116.151 29.8362 116.395 29.6336C116.638 29.4309 116.925 29.3447 117.254 29.3749C117.573 29.4041 117.833 29.5404 118.036 29.7839C118.239 30.0275 118.325 30.3138 118.295 30.6431C118.265 30.9724 118.128 31.2384 117.884 31.441C117.641 31.6436 117.36 31.7303 117.041 31.7011ZM117.827 32.946L117.022 41.7253L115.206 41.5588L116.01 32.7796L117.827 32.946ZM122.195 34.8405L121.75 39.7002C121.719 40.0294 121.772 40.2753 121.907 40.4376C122.054 40.5903 122.313 40.6837 122.685 40.7177L123.8 40.8199L123.661 42.3336L122.227 42.2022C121.409 42.1272 120.8 41.8786 120.4 41.4563C119.999 41.034 119.838 40.3927 119.917 39.5323L120.362 34.6726L119.327 34.5777L119.463 33.0959L120.498 33.1908L120.698 31.008L122.531 31.1759L122.331 33.3587L124.466 33.5544L124.33 35.0361L122.195 34.8405ZM126.637 31.4396L128.612 31.6207L126.592 35.2595L125.317 35.1427L126.637 31.4396ZM132.368 43.2759C131.677 43.2127 131.067 43.0336 130.537 42.7387C130.019 42.4341 129.62 42.0548 129.34 41.6007C129.061 41.136 128.935 40.6371 128.963 40.104L130.843 40.2763C130.841 40.651 130.987 40.9804 131.283 41.2645C131.59 41.539 131.987 41.6987 132.476 41.7434C132.986 41.7901 133.388 41.7306 133.681 41.5647C133.987 41.3891 134.153 41.1473 134.182 40.8393C134.212 40.51 134.075 40.2511 133.771 40.0626C133.477 39.875 132.999 39.6545 132.337 39.401C131.695 39.1601 131.175 38.9357 130.776 38.7277C130.377 38.5198 130.04 38.2265 129.764 37.8477C129.499 37.4699 129.392 36.9943 129.445 36.4207C129.488 35.9533 129.665 35.5411 129.976 35.184C130.288 34.8162 130.709 34.5442 131.24 34.3679C131.781 34.1925 132.386 34.1355 133.055 34.1968C134.053 34.2883 134.832 34.6167 135.391 35.182C135.961 35.7377 136.228 36.453 136.19 37.3279L134.374 37.1615C134.378 36.7656 134.247 36.4376 133.982 36.1776C133.717 35.9177 133.34 35.7653 132.851 35.7205C132.373 35.6767 131.998 35.7334 131.727 35.8907C131.455 36.0479 131.306 36.2752 131.279 36.5726C131.257 36.8063 131.324 37.0106 131.48 37.1855C131.635 37.3604 131.83 37.5069 132.066 37.6248C132.303 37.7322 132.653 37.8768 133.119 38.0587C133.741 38.2871 134.245 38.51 134.632 38.7276C135.031 38.9355 135.363 39.223 135.63 39.5902C135.896 39.9574 136.009 40.4229 135.968 40.9869C135.922 41.4861 135.743 41.9196 135.431 42.2873C135.118 42.655 134.697 42.9271 134.167 43.1034C133.647 43.2807 133.047 43.3382 132.368 43.2759ZM146.194 37.0395L144.568 36.8906L143.9 44.188L142.067 44.0201L142.736 36.7227L141.7 36.6278L141.836 35.146L142.872 35.2409L142.929 34.6195C143.021 33.6104 143.354 32.9018 143.927 32.4937C144.511 32.076 145.377 31.9197 146.524 32.0248L146.386 33.5384C145.833 33.4878 145.436 33.5585 145.193 33.7505C144.952 33.9319 144.808 34.2775 144.761 34.7874L144.704 35.4088L146.329 35.5577L146.194 37.0395ZM149.639 37.1463C149.945 36.7245 150.327 36.4114 150.785 36.207C151.255 35.9929 151.792 35.9137 152.398 35.9691L152.225 37.8493L151.763 37.8069C151.052 37.7417 150.493 37.8726 150.088 38.1997C149.694 38.5278 149.456 39.138 149.374 40.0302L148.951 44.6509L147.135 44.4844L147.939 35.7052L149.755 35.8716L149.639 37.1463ZM161.718 41.1773C161.688 41.5066 161.639 41.8021 161.572 42.0637L154.864 41.4491C154.853 42.155 155.062 42.7418 155.49 43.2095C155.919 43.6773 156.473 43.9423 157.153 44.0046C158.13 44.0941 158.858 43.7484 159.337 42.9675L161.296 43.1471C160.957 43.93 160.413 44.5496 159.664 45.0059C158.927 45.4525 158.043 45.6286 157.013 45.5341C156.174 45.4573 155.436 45.2023 154.801 44.7692C154.178 44.3264 153.706 43.7476 153.386 43.0328C153.077 42.3083 152.964 41.4946 153.047 40.5917C153.13 39.6888 153.383 38.914 153.806 38.2673C154.241 37.6109 154.805 37.127 155.498 36.8156C156.201 36.5051 156.983 36.3893 157.843 36.4681C158.672 36.544 159.394 36.7923 160.008 37.2128C160.623 37.6333 161.081 38.1894 161.382 38.8811C161.684 39.5621 161.796 40.3275 161.718 41.1773ZM159.874 40.43C159.925 39.7598 159.735 39.2015 159.305 38.755C158.874 38.3085 158.314 38.0537 157.624 37.9904C156.997 37.933 156.442 38.0857 155.959 38.4484C155.477 38.8006 155.162 39.3127 155.015 39.9847L159.874 40.43ZM171.552 42.0784C171.521 42.4077 171.473 42.7031 171.406 42.9648L164.698 42.3501C164.687 43.0561 164.896 43.6429 165.324 44.1106C165.753 44.5783 166.307 44.8433 166.987 44.9056C167.964 44.9952 168.692 44.6495 169.17 43.8685L171.13 44.0481C170.791 44.8311 170.246 45.4507 169.498 45.9069C168.761 46.3535 167.877 46.5296 166.846 46.4352C166.007 46.3583 165.27 46.1033 164.635 45.6702C164.012 45.2275 163.54 44.6487 163.22 43.9338C162.911 43.2093 162.798 42.3956 162.881 41.4927C162.964 40.5899 163.217 39.8151 163.64 39.1683C164.075 38.512 164.639 38.028 165.332 37.7166C166.035 37.4062 166.817 37.2904 167.677 37.3692C168.506 37.4451 169.227 37.6933 169.842 38.1139C170.457 38.5344 170.915 39.0905 171.216 39.7821C171.518 40.4632 171.63 41.2286 171.552 42.0784ZM169.708 41.331C169.759 40.6609 169.569 40.1025 169.139 39.6561C168.708 39.2096 168.148 38.9547 167.457 38.8915C166.831 38.8341 166.276 38.9867 165.793 39.3495C165.31 39.7016 164.996 40.2137 164.849 40.8857L169.708 41.331ZM181.405 40.2659L179.78 40.117L179.112 47.4144L177.279 47.2465L177.948 39.9491L176.912 39.8542L177.048 38.3724L178.084 38.4673L178.141 37.8459C178.233 36.8368 178.566 36.1282 179.139 35.7201C179.723 35.3024 180.589 35.1461 181.736 35.2512L181.598 36.7649C181.045 36.7143 180.648 36.785 180.405 36.977C180.164 37.1583 180.02 37.504 179.973 38.0138L179.916 38.6352L181.541 38.7841L181.405 40.2659ZM186.141 48.2032C185.313 48.1273 184.581 47.8728 183.946 47.4397C183.312 46.996 182.835 46.4167 182.514 45.7018C182.195 44.9763 182.077 44.1621 182.16 43.2593C182.242 42.367 182.511 41.5937 182.967 40.9392C183.423 40.2848 184.008 39.8028 184.722 39.4934C185.436 39.1839 186.213 39.0676 187.052 39.1445C187.891 39.2214 188.633 39.4768 189.279 39.9109C189.925 40.345 190.413 40.9252 190.742 41.6517C191.072 42.3781 191.196 43.1875 191.114 44.0798C191.033 44.972 190.758 45.7449 190.291 46.3983C189.824 47.0518 189.223 47.5376 188.487 47.8558C187.762 48.1643 186.981 48.2801 186.141 48.2032ZM186.286 46.6258C186.753 46.6686 187.199 46.597 187.623 46.4109C188.058 46.2258 188.423 45.9219 188.719 45.4991C189.015 45.0763 189.192 44.5463 189.25 43.9089C189.309 43.2716 189.236 42.724 189.031 42.2661C188.828 41.7976 188.534 41.4333 188.151 41.1733C187.768 40.9132 187.343 40.7618 186.875 40.7189C186.408 40.6761 185.962 40.7477 185.538 40.9338C185.125 41.1209 184.781 41.4268 184.506 41.8515C184.233 42.2656 184.067 42.7913 184.008 43.4286C183.922 44.374 184.093 45.1288 184.524 45.6931C184.966 46.2477 185.553 46.5586 186.286 46.6258ZM195.011 41.3037C195.317 40.8819 195.7 40.5688 196.158 40.3644C196.627 40.1504 197.165 40.0711 197.77 40.1266L197.598 42.0067L197.136 41.9644C196.424 41.8991 195.866 42.0301 195.461 42.3572C195.067 42.6852 194.829 43.2954 194.747 44.1877L194.323 48.8083L192.507 48.6419L193.311 39.8626L195.128 40.0291L195.011 41.3037ZM211.468 41.5263L204.9 53.9388L203.02 53.7665L205.196 49.6599L202.53 40.7073L204.553 40.8927L206.41 47.811L209.588 41.3541L211.468 41.5263ZM215.83 50.9235C215.001 50.8476 214.269 50.5931 213.634 50.16C213 49.7163 212.523 49.137 212.203 48.4221C211.883 47.6966 211.765 46.8824 211.848 45.9796C211.93 45.0873 212.199 44.314 212.655 43.6595C213.111 43.0051 213.696 42.5231 214.41 42.2137C215.124 41.9042 215.901 41.7879 216.74 41.8648C217.579 41.9417 218.321 42.1971 218.967 42.6312C219.613 43.0653 220.101 43.6455 220.431 44.372C220.76 45.0984 220.884 45.9078 220.803 46.8001C220.721 47.6923 220.446 48.4652 219.98 49.1186C219.513 49.7721 218.911 50.2579 218.175 50.5761C217.45 50.8846 216.669 51.0004 215.83 50.9235ZM215.974 49.3461C216.441 49.3889 216.887 49.3173 217.311 49.1312C217.746 48.9461 218.111 48.6422 218.407 48.2194C218.703 47.7966 218.88 47.2666 218.938 46.6292C218.997 45.9919 218.924 45.4443 218.719 44.9864C218.516 44.5179 218.223 44.1536 217.839 43.8936C217.456 43.6335 217.031 43.4821 216.563 43.4392C216.096 43.3964 215.65 43.468 215.226 43.6541C214.813 43.8412 214.469 44.1471 214.194 44.5718C213.921 44.9859 213.755 45.5116 213.696 46.1489C213.61 47.0943 213.781 47.8491 214.212 48.4134C214.654 48.968 215.241 49.2789 215.974 49.3461ZM230.95 43.3115L230.146 52.0907L228.329 51.9242L228.424 50.8886C228.104 51.2235 227.701 51.4757 227.214 51.6453C226.739 51.8053 226.241 51.8614 225.721 51.8137C225.03 51.7505 224.422 51.5501 223.896 51.2127C223.38 50.8763 222.989 50.412 222.722 49.8198C222.466 49.2286 222.374 48.5347 222.447 47.738L222.92 42.5756L224.72 42.7406L224.272 47.6321C224.2 48.4182 224.341 49.0416 224.695 49.5025C225.05 49.9528 225.568 50.2091 226.248 50.2714C226.927 50.3337 227.483 50.1757 227.914 49.7974C228.356 49.4095 228.614 48.8226 228.686 48.0365L229.134 43.145L230.95 43.3115ZM235.836 41.4454L234.92 49.1541L233.407 49.0154L233.908 41.2688L235.836 41.4454ZM233.902 52.5474C233.573 52.5172 233.307 52.3804 233.105 52.1368C232.902 51.8933 232.816 51.6069 232.846 51.2777C232.876 50.9484 233.013 50.6824 233.256 50.4798C233.5 50.2772 233.786 50.1909 234.116 50.2211C234.434 50.2503 234.695 50.3867 234.898 50.6302C235.1 50.8737 235.186 51.1601 235.156 51.4894C235.126 51.8186 234.989 52.0846 234.746 52.2872C234.502 52.4898 234.221 52.5766 233.902 52.5474Z" fill="#18181B"/>
<defs>
<filter id="filter0_ddddd_63_153" x="0.936523" y="0.131104" width="264.368" height="180.788" filterUnits="userSpaceOnUse" color-interpolation-filters="sRGB">
<feFlood flood-opacity="0" result="BackgroundImageFix"/>
<feColorMatrix in="SourceAlpha" type="matrix" values="0 0 0 0 0 0 0 0 0 0 0 0 0 0 0 0 0 0 127 0" result="hardAlpha"/>
<feOffset/>
<feColorMatrix type="matrix" values="0 0 0 0 0 0 0 0 0 0 0 0 0 0 0 0 0 0 0.1 0"/>
<feBlend mode="normal" in2="BackgroundImageFix" result="effect1_dropShadow_63_153"/>
<feColorMatrix in="SourceAlpha" type="matrix" values="0 0 0 0 0 0 0 0 0 0 0 0 0 0 0 0 0 0 127 0" result="hardAlpha"/>
<feOffset dx="-2" dy="5"/>
<feGaussianBlur stdDeviation="5.5"/>
<feColorMatrix type="matrix" values="0 0 0 0 0 0 0 0 0 0 0 0 0 0 0 0 0 0 0.1 0"/>
<feBlend mode="normal" in2="effect1_dropShadow_63_153" result="effect2_dropShadow_63_153"/>
<feColorMatrix in="SourceAlpha" type="matrix" values="0 0 0 0 0 0 0 0 0 0 0 0 0 0 0 0 0 0 127 0" result="hardAlpha"/>
<feOffset dx="-7" dy="18"/>
<feGaussianBlur stdDeviation="10"/>
<feColorMatrix type="matrix" values="0 0 0 0 0 0 0 0 0 0 0 0 0 0 0 0 0 0 0.09 0"/>
<feBlend mode="normal" in2="effect2_dropShadow_63_153" result="effect3_dropShadow_63_153"/>
<feColorMatrix in="SourceAlpha" type="matrix" values="0 0 0 0 0 0 0 0 0 0 0 0 0 0 0 0 0 0 127 0" result="hardAlpha"/>
<feOffset dx="-16" dy="41"/>
<feGaussianBlur stdDeviation="13"/>
<feColorMatrix type="matrix" values="0 0 0 0 0 0 0 0 0 0 0 0 0 0 0 0 0 0 0.05 0"/>
<feBlend mode="normal" in2="effect3_dropShadow_63_153" result="effect4_dropShadow_63_153"/>
<feColorMatrix in="SourceAlpha" type="matrix" values="0 0 0 0 0 0 0 0 0 0 0 0 0 0 0 0 0 0 127 0" result="hardAlpha"/>
<feOffset dx="-29" dy="73"/>
<feGaussianBlur stdDeviation="15.5"/>
<feColorMatrix type="matrix" values="0 0 0 0 0 0 0 0 0 0 0 0 0 0 0 0 0 0 0.01 0"/>
<feBlend mode="normal" in2="effect4_dropShadow_63_153" result="effect5_dropShadow_63_153"/>
<feBlend mode="normal" in="SourceGraphic" in2="effect5_dropShadow_63_153" result="shape"/>
</filter>
</defs>
</svg>
