<svg width="42" height="43" viewBox="0 0 42 43" fill="none" xmlns="http://www.w3.org/2000/svg">
<path d="M29.0598 10.7535C27.8714 9.39635 27.2163 7.65374 27.2165 5.84979H21.8433V27.4123C21.8027 28.5794 21.3104 29.6852 20.4701 30.4962C19.6298 31.3073 18.5074 31.7603 17.3395 31.7596C14.8703 31.7596 12.8184 29.7424 12.8184 27.2384C12.8184 24.2475 15.7049 22.0043 18.6785 22.9259V17.4309C12.6792 16.631 7.42773 21.2913 7.42773 27.2384C7.42773 33.029 12.2271 37.1502 17.3221 37.1502C22.7823 37.1502 27.2165 32.716 27.2165 27.2384V16.3006C29.3954 17.8654 32.0113 18.7049 34.6938 18.7003V13.3271C34.6938 13.3271 31.4247 13.4836 29.0598 10.7535Z" fill="white"/>
</svg>
