<svg width="25" height="25" viewBox="0 0 25 25" fill="none" xmlns="http://www.w3.org/2000/svg">
<path d="M6.04703 0V8.06667M18.9537 0V8.06667M5.24036 12.1H10.0804M19.7604 12.1H14.9204M5.24036 16.94H10.0804M14.9204 16.94H19.7604M2.82036 4.03333H22.1804C22.6082 4.03333 23.0186 4.20331 23.3212 4.50587C23.6237 4.80843 23.7937 5.21878 23.7937 5.64667V21.78C23.7937 22.2079 23.6237 22.6182 23.3212 22.9208C23.0186 23.2234 22.6082 23.3933 22.1804 23.3933H2.82036C2.39248 23.3933 1.98212 23.2234 1.67957 22.9208C1.37701 22.6182 1.20703 22.2079 1.20703 21.78V5.64667C1.20703 5.21878 1.37701 4.80843 1.67957 4.50587C1.98212 4.20331 2.39248 4.03333 2.82036 4.03333Z" stroke="white" stroke-width="1.65" stroke-linecap="round"/>
</svg>
