<svg width="17" height="17" viewBox="0 0 17 17" fill="none" xmlns="http://www.w3.org/2000/svg">
<g clip-path="url(#clip0_74_1482)">
<path d="M3.96641 0V5.66667M13.0331 0V5.66667M1.69974 2.83333H15.2997C15.6003 2.83333 15.8886 2.95274 16.1011 3.16528C16.3137 3.37782 16.4331 3.66609 16.4331 3.96667V15.3C16.4331 15.6006 16.3137 15.8888 16.1011 16.1014C15.8886 16.3139 15.6003 16.4333 15.2997 16.4333H1.69974C1.39916 16.4333 1.11089 16.3139 0.898352 16.1014C0.685811 15.8888 0.566406 15.6006 0.566406 15.3V3.96667C0.566406 3.66609 0.685811 3.37782 0.898352 3.16528C1.11089 2.95274 1.39916 2.83333 1.69974 2.83333Z" stroke="white" stroke-linecap="round"/>
</g>
<defs>
<clipPath id="clip0_74_1482">
<rect width="17" height="17" fill="white"/>
</clipPath>
</defs>
</svg>
