<svg width="24" height="24" viewBox="0 0 24 24" fill="none" xmlns="http://www.w3.org/2000/svg">
<path d="M13.4707 8.53C13.397 8.46134 13.3379 8.37854 13.2969 8.28654C13.2559 8.19454 13.2338 8.09523 13.2321 7.99452C13.2303 7.89382 13.2488 7.79379 13.2865 7.7004C13.3243 7.60701 13.3804 7.52218 13.4516 7.45096C13.5228 7.37974 13.6077 7.3236 13.7011 7.28588C13.7945 7.24816 13.8945 7.22963 13.9952 7.23141C14.0959 7.23319 14.1952 7.25523 14.2872 7.29622C14.3792 7.33721 14.462 7.39631 14.5307 7.47L18.5307 11.47C18.6711 11.6106 18.75 11.8013 18.75 12C18.75 12.1988 18.6711 12.3894 18.5307 12.53L14.5307 16.53C14.462 16.6037 14.3792 16.6628 14.2872 16.7038C14.1952 16.7448 14.0959 16.7668 13.9952 16.7686C13.8945 16.7704 13.7944 16.7518 13.7011 16.7141C13.6077 16.6764 13.5228 16.6203 13.4516 16.549C13.3804 16.4778 13.3243 16.393 13.2865 16.2996C13.2488 16.2062 13.2303 16.1062 13.2321 16.0055C13.2338 15.9048 13.2559 15.8055 13.2969 15.7135C13.3379 15.6215 13.397 15.5387 13.4707 15.47L16.1907 12.75L6.50066 12.75C6.30175 12.75 6.11098 12.671 5.97033 12.5303C5.82968 12.3897 5.75066 12.1989 5.75066 12C5.75066 11.8011 5.82968 11.6103 5.97033 11.4697C6.11098 11.329 6.30175 11.25 6.50066 11.25L16.1907 11.25L13.4707 8.53Z" fill="white"/>
</svg>
