<svg width="27" height="25" viewBox="0 0 27 25" fill="none" xmlns="http://www.w3.org/2000/svg">
<path d="M24.8214 13.4917C23.3598 12.8911 20.6505 10.5125 15.8839 14.0875C14.6308 13.3868 12.3089 11.7042 8.73385 14.6833C8.31618 12.9816 8.23276 9.10873 8.73385 5.74585C8.9424 5.24535 9.80278 4.89082 12.3089 7.53335L15.288 4.55418C15.0795 3.25288 13.5005 1.57501 8.73385 1.57501C6.94635 1.57501 5.31496 3.10332 4.56302 5.74585C3.62339 8.44795 2.17969 14.6833 2.17969 18.2583C2.17969 19.3594 3.66927 21.8333 9.32969 21.8333C10.5214 21.8333 14.007 21.9674 18.2672 20.0458L21.8422 23.025" stroke="white" stroke-width="2.38333" stroke-linecap="round" stroke-linejoin="round"/>
</svg>
