<svg width="31" height="25" viewBox="0 0 31 25" fill="none" xmlns="http://www.w3.org/2000/svg">
<path d="M2.4375 4.25L10 1.5L17.5625 4.25L14.125 6.3125V8.375C14.125 8.375 13.2079 7.6875 10 7.6875C6.79213 7.6875 5.875 8.375 5.875 8.375V6.3125L2.4375 4.25ZM2.4375 4.25V9.75" stroke="white" stroke-width="1.65" stroke-linecap="round" stroke-linejoin="round"/>
<path d="M14.125 7.6875V8.90987C14.125 11.2721 12.2784 13.1875 10 13.1875C7.72162 13.1875 5.875 11.2721 5.875 8.90987V7.6875M20.0623 11.1662C20.0623 11.1662 20.7291 10.6809 23.0625 10.6809C25.3959 10.6809 26.0628 11.1649 26.0628 11.1649M20.0623 11.1662V9.75L17.5625 8.375L23.0625 6.3125L28.5625 8.375L26.0628 9.75V11.1649M20.0623 11.1662V11.5622C20.0623 12.358 20.3783 13.1211 20.941 13.6837C21.5037 14.2464 22.2668 14.5625 23.0625 14.5625C23.8582 14.5625 24.6213 14.2464 25.184 13.6837C25.7467 13.1211 26.0628 12.358 26.0628 11.5622V11.1649M21 23.5H26.0944C27.1573 23.5 28.0015 22.983 28.7605 22.2597C30.3143 20.7802 27.7636 19.5977 26.7915 19.0189C25.927 18.5086 24.967 18.181 23.9708 18.0564C22.9747 17.9317 21.9636 18.0127 21 18.2943M5.02937 17.8982C3.73275 18.6229 0.332374 20.101 2.40312 21.9504C3.41512 22.8537 4.54125 23.5 5.95887 23.5H14.0411C15.4574 23.5 16.5849 22.8537 17.5969 21.9504C19.6676 20.101 16.2672 18.6229 14.9706 17.8982C11.9291 16.2001 8.07087 16.2001 5.02937 17.8982Z" stroke="white" stroke-width="1.65" stroke-linecap="round" stroke-linejoin="round"/>
</svg>
