<svg width="26" height="26" viewBox="0 0 26 26" fill="none" xmlns="http://www.w3.org/2000/svg">
<g opacity="0.3">
<path d="M18.0341 14.7879C18.2397 14.2385 18.344 13.6564 18.342 13.0698C18.342 11.7674 17.8246 10.5182 16.9036 9.59726C15.9826 8.67628 14.7335 8.15887 13.431 8.15887C12.8516 8.15955 12.2771 8.2638 11.7344 8.4667L12.8869 9.65507C13.0621 9.62704 13.2393 9.61268 13.4167 9.61211C14.3376 9.61019 15.2219 9.97273 15.8765 10.6206C16.531 11.2684 16.9026 12.1489 16.9102 13.0698C16.9096 13.2473 16.8952 13.4244 16.8672 13.5996L18.0341 14.7879Z" fill="black"/>
<path d="M24.5491 12.7334C22.1366 8.27346 17.9057 5.57458 13.2239 5.57458C11.9491 5.57758 10.683 5.78297 9.47266 6.18308L10.6252 7.34281C11.4742 7.12342 12.3471 7.0104 13.2239 7.00635C17.2543 7.00635 20.9196 9.25422 23.103 13.0412C22.3021 14.4462 21.2403 15.6854 19.9746 16.6922L20.9912 17.7088C22.4559 16.5271 23.6724 15.0673 24.5706 13.4135L24.7567 13.0699L24.5491 12.7334Z" fill="black"/>
<path d="M3.48567 4.32173L6.6785 7.51456C4.66037 8.81397 3.01097 10.6113 1.88925 12.7333L1.70312 13.0698L1.88925 13.4134C4.30178 17.8734 8.53263 20.5722 13.2145 20.5722C15.0419 20.5719 16.8456 20.1583 18.4906 19.3624L22.07 22.9418L23.3228 21.868L4.70983 3.25507L3.48567 4.32173ZM10.4655 11.3016L15.2261 16.0622C14.6882 16.3951 14.069 16.5735 13.4364 16.5776C12.9768 16.5776 12.5217 16.4867 12.0973 16.3102C11.6729 16.1337 11.2876 15.8749 10.9636 15.5489C10.6396 15.2229 10.3832 14.836 10.2093 14.4106C10.0353 13.9851 9.94725 13.5294 9.95008 13.0698C9.95815 12.4445 10.1363 11.8332 10.4655 11.3016ZM9.42749 10.2635C8.75773 11.2081 8.44381 12.3591 8.54131 13.5129C8.6388 14.6667 9.14143 15.7488 9.96018 16.5675C10.7789 17.3863 11.861 17.8889 13.0148 17.9864C14.1686 18.0839 15.3196 17.77 16.2642 17.1002L17.4096 18.2456C16.0836 18.8124 14.6565 19.1046 13.2145 19.1047C9.18409 19.1047 5.51877 16.8568 3.33534 13.0698C4.38318 11.2144 5.89227 9.66092 7.71653 8.55975L9.42749 10.2635Z" fill="black"/>
</g>
</svg>
