<svg width="19" height="19" viewBox="0 0 19 19" fill="none" xmlns="http://www.w3.org/2000/svg">
<path d="M6.53203 2.5H3.57648C3.24643 2.5 2.9299 2.63111 2.69652 2.86449C2.46314 3.09787 2.33203 3.4144 2.33203 3.74444V6.7C2.33203 6.86342 2.36422 7.02525 2.42676 7.17623C2.4893 7.32721 2.58096 7.4644 2.69652 7.57996C2.81208 7.69551 2.94926 7.78718 3.10025 7.84972C3.25123 7.91226 3.41305 7.94444 3.57648 7.94444H6.53203C6.69545 7.94444 6.85728 7.91226 7.00826 7.84972C7.15924 7.78718 7.29643 7.69551 7.41199 7.57996C7.52754 7.4644 7.61921 7.32721 7.68175 7.17623C7.74429 7.02525 7.77648 6.86342 7.77648 6.7V3.74444C7.77648 3.4144 7.64537 3.09787 7.41199 2.86449C7.17861 2.63111 6.86208 2.5 6.53203 2.5ZM15.0876 2.5H12.132C11.802 2.5 11.4855 2.63111 11.2521 2.86449C11.0187 3.09787 10.8876 3.4144 10.8876 3.74444V6.7C10.8876 7.03005 11.0187 7.34658 11.2521 7.57996C11.4855 7.81333 11.802 7.94444 12.132 7.94444H15.0876C15.4176 7.94444 15.7342 7.81333 15.9675 7.57996C16.2009 7.34658 16.332 7.03005 16.332 6.7V3.74444C16.332 3.4144 16.2009 3.09787 15.9675 2.86449C15.7342 2.63111 15.4176 2.5 15.0876 2.5ZM6.53203 11.0556H3.57648C3.24643 11.0556 2.9299 11.1867 2.69652 11.42C2.46314 11.6534 2.33203 11.97 2.33203 12.3V15.2556C2.33203 15.5856 2.46314 15.9021 2.69652 16.1355C2.9299 16.3689 3.24643 16.5 3.57648 16.5H6.53203C6.86208 16.5 7.17861 16.3689 7.41199 16.1355C7.64537 15.9021 7.77648 15.5856 7.77648 15.2556V12.3C7.77648 11.97 7.64537 11.6534 7.41199 11.42C7.17861 11.1867 6.86208 11.0556 6.53203 11.0556ZM15.0876 11.0556H12.132C11.802 11.0556 11.4855 11.1867 11.2521 11.42C11.0187 11.6534 10.8876 11.97 10.8876 12.3V15.2556C10.8876 15.5856 11.0187 15.9021 11.2521 16.1355C11.4855 16.3689 11.802 16.5 12.132 16.5H15.0876C15.4176 16.5 15.7342 16.3689 15.9675 16.1355C16.2009 15.9021 16.332 15.5856 16.332 15.2556V12.3C16.332 11.97 16.2009 11.6534 15.9675 11.42C15.7342 11.1867 15.4176 11.0556 15.0876 11.0556Z" stroke="white" stroke-width="1.16667" stroke-miterlimit="10" stroke-linejoin="round"/>
</svg>
