<svg width="20" height="19" viewBox="0 0 20 19" fill="none" xmlns="http://www.w3.org/2000/svg">
<path d="M2.83203 4.54167C2.83203 4.30961 2.92422 4.08705 3.08831 3.92295C3.25241 3.75886 3.47497 3.66667 3.70703 3.66667H12.457C12.6891 3.66667 12.9117 3.75886 13.0757 3.92295C13.2398 4.08705 13.332 4.30961 13.332 4.54167C13.332 4.77374 13.2398 4.9963 13.0757 5.16039C12.9117 5.32448 12.6891 5.41667 12.457 5.41667H3.70703C3.47497 5.41667 3.25241 5.32448 3.08831 5.16039C2.92422 4.9963 2.83203 4.77374 2.83203 4.54167ZM2.83203 13.875C2.83203 13.6429 2.92422 13.4204 3.08831 13.2563C3.25241 13.0922 3.47497 13 3.70703 13H11.2904C11.5224 13 11.745 13.0922 11.9091 13.2563C12.0732 13.4204 12.1654 13.6429 12.1654 13.875C12.1654 14.1071 12.0732 14.3296 11.9091 14.4937C11.745 14.6578 11.5224 14.75 11.2904 14.75H3.70703C3.47497 14.75 3.25241 14.6578 3.08831 14.4937C2.92422 14.3296 2.83203 14.1071 2.83203 13.875ZM3.70703 8.33334C3.47497 8.33334 3.25241 8.42553 3.08831 8.58962C2.92422 8.75371 2.83203 8.97627 2.83203 9.20834C2.83203 9.4404 2.92422 9.66296 3.08831 9.82706C3.25241 9.99115 3.47497 10.0833 3.70703 10.0833H15.957C16.1891 10.0833 16.4117 9.99115 16.5757 9.82706C16.7398 9.66296 16.832 9.4404 16.832 9.20834C16.832 8.97627 16.7398 8.75371 16.5757 8.58962C16.4117 8.42553 16.1891 8.33334 15.957 8.33334H3.70703Z" fill="white"/>
</svg>
