<svg width="27" height="27" viewBox="0 0 27 27" fill="none" xmlns="http://www.w3.org/2000/svg">
<path d="M6.00078 5.49999H12.6008C13.2058 5.49999 13.7008 5.00499 13.7008 4.39999C13.7008 3.79499 13.2058 3.29999 12.6008 3.29999H6.00078C4.79078 3.29999 3.80078 4.28999 3.80078 5.49999V20.9C3.80078 22.11 4.79078 23.1 6.00078 23.1H12.6008C13.2058 23.1 13.7008 22.605 13.7008 22C13.7008 21.395 13.2058 20.9 12.6008 20.9H6.00078V5.49999Z" fill="white"/>
<path d="M23.2154 12.815L20.1464 9.74598C20.0699 9.66739 19.9717 9.61341 19.8643 9.59096C19.757 9.5685 19.6453 9.57859 19.5438 9.61994C19.4422 9.66128 19.3552 9.732 19.2941 9.82304C19.2329 9.91408 19.2003 10.0213 19.2004 10.131V12.1H11.5004C10.8954 12.1 10.4004 12.595 10.4004 13.2C10.4004 13.805 10.8954 14.3 11.5004 14.3H19.2004V16.269C19.2004 16.764 19.7944 17.006 20.1354 16.654L23.2044 13.585C23.4244 13.376 23.4244 13.024 23.2154 12.815Z" fill="white"/>
</svg>
