<svg width="23" height="23" viewBox="0 0 23 23" fill="none" xmlns="http://www.w3.org/2000/svg">
<path fill-rule="evenodd" clip-rule="evenodd" d="M4.791 8.625C4.791 6.84584 5.49777 5.13955 6.75583 3.88149C8.01388 2.62344 9.72017 1.91667 11.4993 1.91667C13.2785 1.91667 14.9848 2.62344 16.2428 3.88149C17.5009 5.13955 18.2077 6.84584 18.2077 8.625V12.2322L19.9538 15.7243C20.0341 15.8851 20.0721 16.0637 20.064 16.2432C20.0559 16.4227 20.0021 16.5972 19.9076 16.7501C19.8131 16.9029 19.6811 17.0291 19.5242 17.1166C19.3672 17.2041 19.1905 17.25 19.0107 17.25H15.2119C14.9987 18.0725 14.5185 18.8009 13.8465 19.3209C13.1746 19.8409 12.349 20.123 11.4993 20.123C10.6497 20.123 9.82407 19.8409 9.15212 19.3209C8.48017 18.8009 7.99992 18.0725 7.78675 17.25H3.98792C3.80821 17.25 3.63148 17.2041 3.47451 17.1166C3.31754 17.0291 3.18554 16.9029 3.09106 16.7501C2.99657 16.5972 2.94273 16.4227 2.93466 16.2432C2.92658 16.0637 2.96454 15.8851 3.04492 15.7243L4.791 12.2322V8.625ZM9.8395 17.25C10.0077 17.5413 10.2497 17.7833 10.541 17.9515C10.8324 18.1197 11.1629 18.2083 11.4993 18.2083C11.8358 18.2083 12.1663 18.1197 12.4576 17.9515C12.749 17.7833 12.9909 17.5413 13.1592 17.25H9.8395ZM11.4993 3.83333C10.2285 3.83333 9.00973 4.33817 8.11111 5.23678C7.2125 6.13539 6.70767 7.35417 6.70767 8.625V12.2322C6.70765 12.5296 6.63842 12.8229 6.50546 13.0889L5.38421 15.3333H17.6154L16.4942 13.0889C16.3609 12.823 16.2913 12.5296 16.291 12.2322V8.625C16.291 7.35417 15.7862 6.13539 14.8876 5.23678C13.9889 4.33817 12.7702 3.83333 11.4993 3.83333Z" fill="white"/>
</svg>
