<svg width="18" height="18" viewBox="0 0 18 18" fill="none" xmlns="http://www.w3.org/2000/svg">
<path d="M17.0004 17L12.9504 12.95M12.9504 12.95C13.6004 12.3 14.116 11.5282 14.4678 10.6789C14.8196 9.8296 15.0007 8.9193 15.0007 8C15.0007 7.0807 14.8196 6.1704 14.4678 5.32108C14.116 4.47176 13.6004 3.70004 12.9504 3.05C12.3003 2.39996 11.5286 1.88431 10.6793 1.53251C9.82995 1.18071 8.91966 0.999641 8.00036 0.999641C7.08106 0.999641 6.17076 1.18071 5.32144 1.53251C4.47211 1.88431 3.7004 2.39996 3.05036 3.05C1.73754 4.36282 1 6.14339 1 8C1 9.85661 1.73754 11.6372 3.05036 12.95C4.36318 14.2628 6.14375 15.0004 8.00036 15.0004C9.85697 15.0004 11.6375 14.2628 12.9504 12.95Z" stroke="white" stroke-width="2" stroke-linecap="round" stroke-linejoin="round"/>
</svg>
