<svg width="20" height="20" viewBox="0 0 20 20" fill="none" xmlns="http://www.w3.org/2000/svg">
<path d="M2.83268 17L17.3743 10.7667C17.5247 10.7026 17.6529 10.5958 17.743 10.4595C17.833 10.3232 17.8811 10.1634 17.8811 10C17.8811 9.8366 17.833 9.67681 17.743 9.5405C17.6529 9.40418 17.5247 9.29737 17.3743 9.23333L2.83268 3C2.70677 2.94507 2.56916 2.92236 2.43227 2.93391C2.29539 2.94547 2.16353 2.99091 2.0486 3.06616C1.93366 3.1414 1.83927 3.24407 1.77394 3.36491C1.7086 3.48575 1.67437 3.62096 1.67435 3.75833L1.66602 7.6C1.66602 8.01666 1.97435 8.375 2.39102 8.425L14.166 10L2.39102 11.5667C1.97435 11.625 1.66602 11.9833 1.66602 12.4L1.67435 16.2417C1.67435 16.8333 2.28268 17.2417 2.83268 17Z" fill="white"/>
</svg>
