<svg width="21" height="21" viewBox="0 0 21 21" fill="none" xmlns="http://www.w3.org/2000/svg">
<path d="M7.05253 10.0116L9.77429 7.2827L7.3278 4.82786L6.36851 5.78596C6.25729 5.89719 6.12223 5.95796 5.96334 5.96829C5.80446 5.97862 5.65868 5.91784 5.526 5.78596C5.39413 5.65409 5.32819 5.51228 5.32819 5.36054C5.32819 5.2088 5.39413 5.06699 5.526 4.93511L6.47695 3.98416L4.15082 1.65803L1.4219 4.38695L7.05253 10.0116ZM16.388 19.3543L19.117 16.6254L16.792 14.2992L15.8339 15.2502C15.7179 15.3662 15.5813 15.4281 15.424 15.4361C15.2667 15.444 15.1221 15.3821 14.9902 15.2502C14.8583 15.1183 14.7928 14.9777 14.7936 14.8283C14.7944 14.679 14.8599 14.5384 14.9902 14.4065L15.9412 13.4484L13.5102 11.0245L10.7872 13.7463L16.388 19.3543ZM1.92836 19.8333C1.65189 19.8333 1.4223 19.742 1.23958 19.5592C1.05686 19.3765 0.965495 19.1469 0.965495 18.8705V16.4669C0.965495 16.339 0.98774 16.2194 1.03223 16.1082C1.07672 15.997 1.1506 15.8897 1.25388 15.7864L6.20168 10.8386L0.543645 5.15796C0.32835 4.94266 0.220703 4.68606 0.220703 4.38814C0.220703 4.09022 0.32835 3.83322 0.543645 3.61713L3.381 0.780964C3.5963 0.56567 3.8529 0.458817 4.15082 0.460406C4.44874 0.461995 4.70534 0.570834 4.92064 0.786923L10.6323 6.4676L15.9555 1.13727C16.0866 1.00619 16.2248 0.91165 16.3702 0.853656C16.5156 0.795661 16.6705 0.766664 16.8349 0.766664C16.9994 0.766664 17.1543 0.795661 17.2997 0.853656C17.4451 0.91165 17.5837 1.00619 17.7156 1.13727L19.6604 3.15953C19.7922 3.29061 19.8836 3.42885 19.9344 3.57423C19.9853 3.71961 20.0103 3.87453 20.0095 4.03898C20.0087 4.20343 19.9833 4.35358 19.9333 4.48943C19.8832 4.62528 19.7926 4.75875 19.6616 4.88983L14.3825 10.1975L20.0191 15.8782C20.2336 16.0935 20.3408 16.3501 20.3408 16.648C20.3408 16.9459 20.2336 17.2025 20.0191 17.4178L17.1817 20.254C16.9664 20.4701 16.7098 20.5781 16.4119 20.5781C16.114 20.5781 15.8574 20.4705 15.6421 20.2552L9.96019 14.5971L5.01239 19.5449C4.90912 19.6482 4.80187 19.7221 4.69064 19.7666C4.57942 19.8111 4.45986 19.8333 4.33195 19.8333H1.92836ZM2.15716 18.6417H4.21517L15.9173 6.94665L13.851 4.88268L2.15716 16.5837V18.6417ZM14.8985 5.90751L13.8522 4.88268L15.9161 6.94784L14.8985 5.90751Z" fill="white"/>
</svg>
