<svg width="25" height="25" viewBox="0 0 25 25" fill="none" xmlns="http://www.w3.org/2000/svg">
<path fill-rule="evenodd" clip-rule="evenodd" d="M12.5 8.31873C11.4972 8.31873 10.5354 8.71711 9.82625 9.42623C9.11713 10.1353 8.71875 11.0971 8.71875 12.1C8.71875 13.1028 9.11713 14.0646 9.82625 14.7737C10.5354 15.4828 11.4972 15.8812 12.5 15.8812C13.5029 15.8812 14.4646 15.4828 15.1737 14.7737C15.8829 14.0646 16.2812 13.1028 16.2812 12.1C16.2812 11.0971 15.8829 10.1353 15.1737 9.42623C14.4646 8.71711 13.5029 8.31873 12.5 8.31873ZM10.2313 12.1C10.2313 11.4983 10.4703 10.9212 10.8958 10.4957C11.3212 10.0703 11.8983 9.83123 12.5 9.83123C13.1017 9.83123 13.6788 10.0703 14.1042 10.4957C14.5297 10.9212 14.7688 11.4983 14.7688 12.1C14.7688 12.7017 14.5297 13.2788 14.1042 13.7042C13.6788 14.1297 13.1017 14.3687 12.5 14.3687C11.8983 14.3687 11.3212 14.1297 10.8958 13.7042C10.4703 13.2788 10.2313 12.7017 10.2313 12.1Z" fill="white"/>
<path fill-rule="evenodd" clip-rule="evenodd" d="M12.4744 1.26038C12.0257 1.26038 11.6516 1.26038 11.3451 1.28054C11.0317 1.29316 10.7226 1.35791 10.4305 1.47213C10.094 1.61137 9.7882 1.81554 9.53058 2.07298C9.27297 2.33042 9.06859 2.63609 8.92913 2.97253C8.78292 3.32544 8.74359 3.69853 8.72746 4.10388C8.72566 4.25208 8.68633 4.39742 8.61316 4.52631C8.53998 4.65521 8.43534 4.76346 8.309 4.84097C8.17875 4.91188 8.03265 4.9486 7.88435 4.94772C7.73605 4.94684 7.59039 4.90838 7.46099 4.83593C7.10203 4.64636 6.75919 4.4941 6.38006 4.44368C6.01902 4.39619 5.65216 4.42028 5.30043 4.51457C4.9487 4.60886 4.61899 4.77151 4.33012 4.99323C4.08549 5.18932 3.87523 5.4248 3.70798 5.68998C3.53656 5.9461 3.34901 6.26978 3.12516 6.65798L3.09995 6.70235C2.87509 7.09056 2.68855 7.41423 2.55343 7.69052C2.41227 7.9789 2.30135 8.26325 2.26102 8.57785C2.16482 9.30687 2.36213 10.0442 2.80955 10.6278C3.04248 10.9313 3.34598 11.1521 3.68882 11.3679C3.81651 11.4436 3.92289 11.5505 3.99802 11.6785C4.07315 11.8066 4.11456 11.9516 4.11837 12.1C4.11456 12.2484 4.07315 12.3934 3.99802 12.5214C3.92289 12.6494 3.81651 12.7563 3.68882 12.832C3.34598 13.0478 3.04348 13.2686 2.80955 13.5721C2.58784 13.861 2.42519 14.1907 2.3309 14.5424C2.23661 14.8942 2.21252 15.261 2.26001 15.6221C2.30135 15.9367 2.41126 16.221 2.55243 16.5094C2.68855 16.7857 2.87509 17.1094 3.09995 17.4976L3.12516 17.5419C3.34901 17.9301 3.53656 18.2538 3.70798 18.5099C3.88645 18.7751 4.07803 19.0141 4.33012 19.2057C4.61891 19.4276 4.94859 19.5904 5.30033 19.6849C5.65206 19.7793 6.01895 19.8036 6.38006 19.7562C6.75919 19.7058 7.10203 19.5546 7.46099 19.364C7.59027 19.2917 7.73574 19.2534 7.88384 19.2525C8.03195 19.2516 8.17787 19.2882 8.30799 19.3589C8.43536 19.4355 8.54092 19.5435 8.61455 19.6726C8.68818 19.8016 8.72741 19.9475 8.72847 20.096C8.74359 20.5014 8.78292 20.8745 8.93013 21.2274C9.06938 21.5639 9.27355 21.8697 9.53099 22.1273C9.78843 22.385 10.0941 22.5893 10.4305 22.7288C10.723 22.8498 11.0255 22.8972 11.3451 22.9184C11.6516 22.9395 12.0257 22.9395 12.4744 22.9395H12.5248C12.9736 22.9395 13.3476 22.9395 13.6542 22.9194C13.9748 22.8972 14.2763 22.8498 14.5687 22.7278C14.9053 22.5886 15.2111 22.3844 15.4687 22.1269C15.7263 21.8695 15.9307 21.5638 16.0701 21.2274C16.2164 20.8745 16.2557 20.5014 16.2718 20.096C16.2734 19.9477 16.3127 19.8021 16.3859 19.673C16.4591 19.544 16.5638 19.4355 16.6903 19.3579C16.8206 19.2872 16.9668 19.2506 17.1151 19.2517C17.2634 19.2527 17.409 19.2914 17.5383 19.364C17.8972 19.5536 18.2401 19.7058 18.6192 19.7552C19.3482 19.8514 20.0856 19.6541 20.6692 19.2067C20.9212 19.0131 21.1128 18.7751 21.2913 18.5099C21.4627 18.2538 21.6503 17.9301 21.8741 17.5419L21.8993 17.4976C22.1242 17.1094 22.3107 16.7857 22.4458 16.5094C22.587 16.221 22.6979 15.9357 22.7383 15.6221C22.8344 14.8931 22.6371 14.1557 22.1897 13.5721C21.9568 13.2686 21.6533 13.0478 21.3105 12.832C21.1828 12.7563 21.0764 12.6494 21.0012 12.5214C20.9261 12.3934 20.8847 12.2484 20.8809 12.1C20.8809 11.8196 21.0342 11.5413 21.3105 11.3679C21.6533 11.1521 21.9558 10.9313 22.1897 10.6278C22.4114 10.3389 22.5741 10.0092 22.6684 9.65748C22.7627 9.30575 22.7868 8.93889 22.7393 8.57785C22.6917 8.26789 22.5929 7.968 22.4468 7.69052C22.2746 7.35553 22.092 7.02598 21.8993 6.70235L21.8741 6.65798C21.6899 6.32935 21.4956 6.00652 21.2913 5.68998C21.1239 5.42516 20.9137 5.19003 20.6692 4.99423C20.3804 4.77234 20.0507 4.60951 19.6989 4.51505C19.3472 4.42059 18.9803 4.39634 18.6192 4.44368C18.2401 4.4941 17.8972 4.64535 17.5383 4.83593C17.409 4.9082 17.2635 4.94656 17.1154 4.94744C16.9673 4.94833 16.8214 4.9117 16.6913 4.84097C16.5646 4.76371 16.4595 4.65556 16.386 4.52665C16.3124 4.39773 16.2728 4.25227 16.2708 4.10388C16.2557 3.69853 16.2164 3.32544 16.0691 2.97253C15.9299 2.63599 15.7257 2.33019 15.4683 2.07257C15.2108 1.81496 14.9052 1.61058 14.5687 1.47112C14.2763 1.35012 13.9738 1.30273 13.6542 1.28155C13.3476 1.26038 12.9736 1.26038 12.5248 1.26038H12.4744ZM11.0093 2.86867C11.087 2.8364 11.2049 2.80716 11.4479 2.79002C11.697 2.77288 12.0197 2.77288 12.4996 2.77288C12.9796 2.77288 13.3023 2.77288 13.5513 2.79002C13.7943 2.80716 13.9123 2.8364 13.99 2.86867C14.2995 2.99673 14.5445 3.24175 14.6726 3.55131C14.7129 3.64811 14.7462 3.80037 14.7593 4.16034C14.7896 4.95894 15.202 5.7283 15.934 6.15079C16.6661 6.57328 17.5383 6.54606 18.2451 6.17298C18.5638 6.00458 18.712 5.95719 18.8168 5.94408C19.1481 5.90031 19.4833 5.98989 19.7485 6.19314C19.8151 6.24457 19.8998 6.33229 20.0359 6.53396C20.1761 6.74168 20.3374 7.02098 20.5774 7.43642C20.8174 7.85185 20.9777 8.13217 21.0876 8.35602C21.1955 8.57483 21.2288 8.69179 21.2389 8.77548C21.2826 9.10679 21.1931 9.44192 20.9898 9.70718C20.9253 9.79088 20.8103 9.89574 20.5058 10.0873C19.8282 10.5128 19.3684 11.255 19.3684 12.1C19.3684 12.9449 19.8282 13.6871 20.5058 14.1126C20.8103 14.3042 20.9253 14.409 20.9898 14.4927C21.1935 14.7579 21.2822 15.0927 21.2389 15.4244C21.2288 15.5081 21.1945 15.6261 21.0876 15.8439C20.9777 16.0688 20.8174 16.3481 20.5774 16.7635C20.3374 17.1789 20.1751 17.4582 20.0359 17.666C19.8998 17.8676 19.8151 17.9554 19.7485 18.0068C19.4833 18.21 19.1481 18.2996 18.8168 18.2558C18.712 18.2427 18.5648 18.1953 18.2451 18.0269C17.5393 17.6539 16.6661 17.6256 15.934 18.0481C15.202 18.4706 14.7896 19.241 14.7593 20.0396C14.7462 20.3996 14.7129 20.5518 14.6726 20.6486C14.6092 20.8017 14.5164 20.9407 14.3992 21.0579C14.2821 21.175 14.143 21.2679 13.99 21.3313C13.9123 21.3635 13.7943 21.3928 13.5513 21.4099C13.3023 21.427 12.9796 21.427 12.4996 21.427C12.0197 21.427 11.697 21.427 11.4479 21.4099C11.2049 21.3928 11.087 21.3635 11.0093 21.3313C10.8563 21.2679 10.7172 21.175 10.6 21.0579C10.4829 20.9407 10.39 20.8017 10.3267 20.6486C10.2863 20.5518 10.2531 20.3996 10.24 20.0396C10.2097 19.241 9.7973 18.4716 9.06525 18.0491C8.3332 17.6266 7.46099 17.6539 6.75415 18.0269C6.43552 18.1953 6.28729 18.2427 6.18243 18.2558C5.85112 18.2996 5.516 18.21 5.25073 18.0068C5.18418 17.9554 5.09948 17.8676 4.96335 17.666C4.77367 17.3708 4.59309 17.0698 4.42188 16.7635C4.18189 16.3481 4.02157 16.0678 3.91166 15.8439C3.80377 15.6251 3.77049 15.5081 3.76041 15.4244C3.71663 15.0931 3.80622 14.758 4.00947 14.4927C4.074 14.409 4.18895 14.3042 4.49347 14.1126C5.17107 13.6871 5.63087 12.9449 5.63087 12.1C5.63087 11.255 5.17107 10.5128 4.49347 10.0873C4.18895 9.89574 4.074 9.79088 4.00947 9.70718C3.80622 9.44192 3.71663 9.10679 3.76041 8.77548C3.77049 8.69179 3.80478 8.57382 3.91166 8.35602C4.02157 8.13116 4.18189 7.85185 4.42188 7.43642C4.66186 7.02098 4.8242 6.74168 4.96335 6.53396C5.09948 6.33229 5.18418 6.24457 5.25073 6.19314C5.516 5.98989 5.85112 5.90031 6.18243 5.94408C6.28729 5.95719 6.43451 6.00458 6.75415 6.17298C7.45998 6.54606 8.3332 6.57429 9.06525 6.15079C9.7973 5.7283 10.2097 4.95894 10.24 4.16034C10.2531 3.80037 10.2863 3.64811 10.3267 3.55131C10.4547 3.24175 10.6998 2.99673 11.0093 2.86867Z" fill="white"/>
</svg>
