<svg width="14" height="14" viewBox="0 0 14 14" fill="none" xmlns="http://www.w3.org/2000/svg">
<path fill-rule="evenodd" clip-rule="evenodd" d="M11.6304 3.90438C11.8823 4.127 11.9058 4.51213 11.6832 4.76563L7.01133 10.0469C6.95738 10.1079 6.89174 10.1575 6.81831 10.1927C6.74487 10.2279 6.66512 10.248 6.58377 10.2519C6.50242 10.2557 6.42112 10.2432 6.34468 10.2152C6.26824 10.1871 6.1982 10.1439 6.13871 10.0883L3.09183 7.24456C2.97462 7.1341 2.9059 6.98173 2.90071 6.82075C2.89551 6.65977 2.95426 6.50328 3.0641 6.38549C3.17395 6.2677 3.32596 6.19818 3.48691 6.19214C3.64786 6.1861 3.80465 6.24402 3.92302 6.35325L6.51489 8.76638L10.7724 3.95638C10.8255 3.89633 10.8899 3.84734 10.9619 3.81222C11.034 3.7771 11.1122 3.75653 11.1922 3.7517C11.2722 3.74687 11.3524 3.75787 11.4281 3.78407C11.5039 3.81027 11.5737 3.85115 11.6336 3.90438H11.6304Z" fill="#FF0004" stroke="#FF0004" stroke-width="0.8"/>
</svg>
